<svg width="25" height="24" viewBox="0 0 25 24" fill="none" xmlns="http://www.w3.org/2000/svg">
<path d="M12.0342 1.99902C6.51138 1.99902 2.03418 6.47602 2.03418 11.999C2.03418 17.522 6.51138 21.999 12.0342 21.999C17.5572 21.999 22.0342 17.522 22.0342 11.999C22.0342 6.47602 17.5572 1.99902 12.0342 1.99902ZM12.0342 3.99902C16.4522 3.99902 20.0342 7.58102 20.0342 11.999C20.0342 16.065 16.9612 19.302 13.0342 19.811V14.999H15.0342V11.999H13.0342V10.999C13.0342 10.429 13.5152 9.99802 14.0342 9.99902C14.3302 9.99902 15.0342 9.99902 15.0342 9.99902V6.99902H13.0342C11.3352 7.01802 10.0452 8.36502 10.0342 9.99902V11.999H8.03418V14.999H10.0342V19.593C6.60728 18.689 4.03418 15.71 4.03418 11.999C4.03418 7.58102 7.61588 3.99902 12.0342 3.99902Z" fill="#3575CA"/>
</svg>
