<svg width="25" height="24" viewBox="0 0 25 24" fill="none" xmlns="http://www.w3.org/2000/svg">
<path d="M8.01855 2.99072C5.25755 2.99072 3.01855 5.22972 3.01855 7.99072V15.9907C3.01855 18.7517 5.25755 20.9907 8.01855 20.9907H16.0186C18.7796 20.9907 21.0186 18.7517 21.0186 15.9907V7.99072C21.0186 5.22972 18.7796 2.99072 16.0186 2.99072H8.01855ZM8.01855 4.99072H16.0186C17.6756 4.99072 19.0186 6.33372 19.0186 7.99072V15.9907C19.0186 17.6477 17.6756 18.9907 16.0186 18.9907H8.01855C6.36155 18.9907 5.01855 17.6477 5.01855 15.9907V7.99072C5.01855 6.33372 6.36155 4.99072 8.01855 4.99072ZM16.0186 6.99072C15.4666 6.99072 15.0186 7.43872 15.0186 7.99072C15.0186 8.54272 15.4666 8.99072 16.0186 8.99072C16.5706 8.99072 17.0186 8.54272 17.0186 7.99072C17.0186 7.43872 16.5706 6.99072 16.0186 6.99072ZM12.0186 7.99072C9.80955 7.99072 8.01855 9.78172 8.01855 11.9907C8.01855 14.1997 9.80955 15.9907 12.0186 15.9907C14.2276 15.9907 16.0186 14.1997 16.0186 11.9907C16.0186 9.78172 14.2276 7.99072 12.0186 7.99072ZM12.0186 9.99072C13.1236 9.99072 14.0186 10.8857 14.0186 11.9907C14.0186 13.0957 13.1236 13.9907 12.0186 13.9907C10.9136 13.9907 10.0186 13.0957 10.0186 11.9907C10.0186 10.8857 10.9136 9.99072 12.0186 9.99072Z" fill="#3575CA"/>
</svg>
