<svg width="25" height="24" viewBox="0 0 25 24" fill="none" xmlns="http://www.w3.org/2000/svg">
<path d="M21.9719 10.343V10.1525V10.0192C21.7049 8.61414 21.0285 7.31445 20.0242 6.27634C18.9425 5.15892 17.6085 4.30443 16.1288 3.78113C14.8136 3.28484 13.4189 3.02043 12.0094 3.00018C10.1514 2.98981 8.31907 3.4247 6.67265 4.26683C5.23101 4.92642 4.02089 5.988 3.19438 7.31818C2.36787 8.64836 1.96185 10.1878 2.02735 11.7429C2.1739 13.2805 2.78781 14.74 3.79003 15.9334C4.79171 17.1135 6.07643 18.0329 7.52964 18.6095C8.42944 18.9481 9.36291 19.1938 10.3149 19.3429H10.422C10.6947 19.3429 10.7628 19.4571 10.7823 19.4857C10.8018 19.5543 10.8018 19.6267 10.7823 19.6952C10.7823 19.7524 10.7823 19.8 10.7823 19.8476C10.6417 20.268 10.5984 20.7137 10.6557 21.1524C10.6822 21.3864 10.7964 21.6025 10.9762 21.759C11.1561 21.9156 11.3888 22.0014 11.6296 22C12.1939 21.9322 12.7325 21.7294 13.1975 21.4095H13.2462C14.22 20.8571 15.1355 20.219 15.8269 19.7333C17.4956 18.6642 19.0118 17.3832 20.3359 15.9239C21.613 14.3476 22.2011 12.3415 21.9719 10.343V10.343ZM8.2503 13.3239H6.52657C6.46482 13.3252 6.40344 13.3142 6.34612 13.2917C6.28881 13.2692 6.23675 13.2356 6.19307 13.1929C6.1494 13.1502 6.11501 13.0993 6.09199 13.0432C6.06897 12.9872 6.05779 12.9271 6.05912 12.8667V9.32392C6.05779 9.26354 6.06897 9.20351 6.09199 9.14746C6.11501 9.09141 6.1494 9.0405 6.19307 8.99779C6.23675 8.95507 6.28881 8.92145 6.34612 8.89894C6.40344 8.87642 6.46482 8.86549 6.52657 8.86679C6.58877 8.86552 6.6506 8.87641 6.70845 8.89881C6.76629 8.92122 6.81898 8.95469 6.86342 8.99726C6.90786 9.03984 6.94317 9.09066 6.96727 9.14676C6.99137 9.20285 7.00377 9.26308 7.00376 9.32392V12.4001H8.2503C8.37685 12.4001 8.49823 12.4492 8.58772 12.5368C8.67721 12.6243 8.72749 12.743 8.72749 12.8667C8.7275 12.9276 8.71509 12.9878 8.691 13.0439C8.6669 13.1 8.63159 13.1508 8.58715 13.1934C8.5427 13.236 8.49002 13.2695 8.43217 13.2919C8.37433 13.3143 8.3125 13.3251 8.2503 13.3239V13.3239ZM10.0519 12.8572C10.0519 12.9835 10.0006 13.1046 9.90931 13.1939C9.818 13.2832 9.69414 13.3334 9.565 13.3334C9.43586 13.3334 9.31201 13.2832 9.22069 13.1939C9.12938 13.1046 9.07807 12.9835 9.07807 12.8572V9.3144C9.07807 9.18811 9.12938 9.06699 9.22069 8.97769C9.31201 8.88838 9.43586 8.83821 9.565 8.83821C9.69414 8.83821 9.818 8.88838 9.90931 8.97769C10.0006 9.06699 10.0519 9.18811 10.0519 9.3144V12.8572ZM14.3174 12.8572C14.3161 12.955 14.2834 13.0498 14.224 13.1284C14.1646 13.207 14.0815 13.2654 13.9863 13.2953H13.8402C13.7659 13.2961 13.6924 13.2792 13.6262 13.246C13.5601 13.2128 13.5032 13.1644 13.4604 13.1048L11.7659 10.8382V12.8572C11.7634 12.9793 11.712 13.0956 11.6228 13.1811C11.5335 13.2665 11.4136 13.3144 11.2887 13.3144C11.2249 13.3183 11.161 13.3093 11.1009 13.2881C11.0407 13.2669 10.9857 13.2338 10.9391 13.191C10.8926 13.1482 10.8555 13.0964 10.8302 13.039C10.8049 12.9816 10.7919 12.9197 10.7921 12.8572V9.41916C10.7921 9.3213 10.823 9.22582 10.8805 9.14573C10.938 9.06564 11.0193 9.00482 11.1134 8.97155C11.2084 8.94301 11.3102 8.9442 11.4044 8.97493C11.4987 9.00566 11.5808 9.06441 11.6393 9.14297L13.3436 11.4287V9.3144C13.3436 9.18811 13.3949 9.06699 13.4862 8.97769C13.5775 8.88838 13.7014 8.83821 13.8305 8.83821C13.9596 8.83821 14.0835 8.88838 14.1748 8.97769C14.2661 9.06699 14.3174 9.18811 14.3174 9.3144V12.8572ZM17.7551 13.2382H15.4179C15.3561 13.2395 15.2948 13.2285 15.2374 13.206C15.1801 13.1835 15.1281 13.1499 15.0844 13.1072C15.0407 13.0645 15.0063 13.0135 14.9833 12.9575C14.9603 12.9014 14.9491 12.8414 14.9504 12.781V9.23821C14.9504 9.11697 14.9997 9.0007 15.0873 8.91497C15.175 8.82924 15.2939 8.78107 15.4179 8.78107H17.6772C17.8064 8.78107 17.9302 8.83124 18.0215 8.92054C18.1129 9.00985 18.1642 9.13097 18.1642 9.25726C18.1642 9.38355 18.1129 9.50467 18.0215 9.59397C17.9302 9.68327 17.8064 9.73344 17.6772 9.73344H15.8853V10.5811H17.3461C17.4701 10.5811 17.589 10.6292 17.6767 10.7149C17.7643 10.8007 17.8136 10.917 17.8136 11.0382C17.8136 11.1603 17.7647 11.2776 17.6773 11.3648C17.5899 11.4521 17.471 11.5024 17.3461 11.5049H15.8853V12.3525H17.7551C17.8843 12.3525 18.0081 12.4026 18.0995 12.4919C18.1908 12.5812 18.2421 12.7024 18.2421 12.8286C18.2421 12.9549 18.1908 13.0761 18.0995 13.1654C18.0081 13.2547 17.8843 13.3048 17.7551 13.3048V13.2382Z" fill="#3575CA"/>
</svg>
