<svg width="25" height="24" viewBox="0 0 25 24" fill="none" xmlns="http://www.w3.org/2000/svg">
<path d="M5.00343 7.1968C6.21183 7.1968 7.19143 6.2172 7.19143 5.0088C7.19143 3.8004 6.21183 2.8208 5.00343 2.8208C3.79503 2.8208 2.81543 3.8004 2.81543 5.0088C2.81543 6.2172 3.79503 7.1968 5.00343 7.1968Z" fill="#3575CA"/>
<path d="M9.25723 8.85518V20.9942H13.0262V14.9912C13.0262 13.4072 13.3242 11.8732 15.2882 11.8732C17.2252 11.8732 17.2492 13.6842 17.2492 15.0912V20.9952H21.0202V14.3382C21.0202 11.0682 20.3162 8.55518 16.4942 8.55518C14.6592 8.55518 13.4292 9.56218 12.9262 10.5152H12.8752V8.85518H9.25723V8.85518ZM3.11523 8.85518H6.89023V20.9942H3.11523V8.85518Z" fill="#3575CA"/>
</svg>
