<svg width="25" height="24" viewBox="0 0 25 24" fill="none" xmlns="http://www.w3.org/2000/svg">
<path d="M6.01953 4.88281C3.81043 4.88281 2.01953 6.67381 2.01953 8.88281V14.8828C2.01953 17.0918 3.81043 18.8828 6.01953 18.8828H18.0195C20.2286 18.8828 22.0195 17.0918 22.0195 14.8828V8.88281C22.0195 6.67381 20.2286 4.88281 18.0195 4.88281H6.01953ZM10.7338 8.88281C10.8581 8.88281 10.9668 8.91781 11.0686 8.97681C11.1265 9.00981 14.6894 11.2088 14.8186 11.3438C14.9483 11.4798 15.0195 11.6748 15.0195 11.8828C15.0195 12.0148 14.9869 12.1268 14.9302 12.2348C14.884 12.3218 14.826 12.4068 14.7516 12.4688C14.63 12.5698 11.0461 14.8038 10.957 14.8358C10.8842 14.8618 10.815 14.8828 10.7338 14.8828C10.5553 14.8828 10.3902 14.8088 10.265 14.6948C10.1135 14.5578 10.0195 14.3598 10.0195 14.1328C10.0195 13.9278 10.0195 9.83681 10.0195 9.63281C10.0195 9.21881 10.3393 8.88281 10.7338 8.88281Z" fill="#3575CA"/>
</svg>
