<svg width="24" height="24" viewBox="0 0 24 24" fill="none" xmlns="http://www.w3.org/2000/svg">
<path d="M17.2061 2.00488C19.3194 2.11215 21 3.85998 21 6V14.8418C21 16.9818 19.3194 18.7296 17.2061 18.8369L17 18.8418H16.4102C16.0373 20.5816 14.5341 21.9024 12.7061 21.9951L12.5 22H7C4.79096 22 3.00016 20.209 3 18V9.1582C3 6.94906 4.79086 5.1582 7 5.1582H7.58984C7.97653 3.35341 9.57973 2.00002 11.5 2H17L17.2061 2.00488ZM7 6.6582C5.61929 6.6582 4.5 7.77749 4.5 9.1582V18C4.50016 19.3806 5.61939 20.5 7 20.5H12.5C13.8806 20.5 14.9998 19.3806 15 18V9.1582C15 7.77749 13.8807 6.6582 12.5 6.6582H7ZM12.7061 5.16309C14.8194 5.27033 16.5 7.01817 16.5 9.1582V17.3418H17C18.3807 17.3418 19.5 16.2225 19.5 14.8418V6C19.5 4.61931 18.3807 3.50003 17 3.5H11.5C10.4151 3.50002 9.4943 4.19218 9.14844 5.1582H12.5L12.7061 5.16309Z" fill="black"/>
</svg>
