<svg width="24" height="24" viewBox="0 0 24 24" fill="none" xmlns="http://www.w3.org/2000/svg">
<path d="M19.29 9.71903V14.6374C19.29 17.5321 17.3116 20.046 14.5132 20.7071C12.8602 21.0976 11.1398 21.0976 9.48673 20.7071C6.68841 20.046 4.70999 17.5321 4.70999 14.6374V9.71903M21 11.2297L14.8284 5.01423C13.4951 3.67141 12.8284 3 12 3C11.1716 3 10.5049 3.67141 9.17157 5.01423L3 11.2297M13.875 20.7973L13.9918 20.5519C14.3219 19.8581 14.4235 19.0763 14.2816 18.3203L14.2622 18.2173C14.1017 17.3622 13.472 16.6737 12.6389 16.4426C12.2208 16.3265 11.7792 16.3265 11.3611 16.4426C10.528 16.6737 9.89826 17.3622 9.73776 18.2173L9.71842 18.3203C9.57653 19.0763 9.67806 19.8581 10.0082 20.5519L10.125 20.7973" stroke="black" stroke-width="1.5" stroke-linecap="round"/>
</svg>
