<svg width="60" height="60" viewBox="0 0 60 60" fill="none" xmlns="http://www.w3.org/2000/svg">
<path d="M21.2749 5H38.7249C39.3049 5 39.7499 5 40.1399 5.0375C42.9099 5.31 45.1774 6.975 46.1399 9.2175H13.8599C14.8224 6.975 17.0899 5.31 19.8599 5.0375C20.2449 5 20.6899 5 21.2749 5ZM15.7749 11.8075C12.2999 11.8075 9.44994 13.9075 8.49994 16.6925L8.43994 16.8675C9.43494 16.5675 10.4724 16.3675 11.5199 16.235C14.2199 15.8875 17.6349 15.8875 21.5999 15.8875H38.8299C42.7949 15.8875 46.2074 15.8875 48.9099 16.235C49.9599 16.37 50.9949 16.565 51.9899 16.8675L51.9324 16.6925C50.9824 13.9075 48.1324 11.8075 44.6549 11.8075H15.7749Z" fill="#285898"/>
<path fill-rule="evenodd" clip-rule="evenodd" d="M21.6798 18.855H38.3198C46.7548 18.855 50.9748 18.855 53.3448 21.3225C55.7148 23.79 55.1548 27.6 54.0398 35.2225L52.9848 42.4525C52.1098 48.43 51.6723 51.42 49.4298 53.21C47.1873 55 43.8798 55 37.2623 55H22.7373C16.1223 55 12.8123 55 10.5698 53.21C8.32735 51.42 7.88985 48.43 7.01485 42.4525L5.95985 35.225C4.84235 27.6 4.28485 23.79 6.65485 21.3225C9.02485 18.855 13.2448 18.855 21.6798 18.855ZM19.9998 45C19.9998 43.965 20.9323 43.125 22.0823 43.125H37.9173C39.0673 43.125 39.9998 43.965 39.9998 45C39.9998 46.035 39.0673 46.875 37.9173 46.875H22.0823C20.9323 46.875 19.9998 46.035 19.9998 45Z" fill="#285898"/>
</svg>
